<?xml version="1.0" encoding="UTF-8"?>
<svg xmlns="http://www.w3.org/2000/svg" viewBox="0 0 394 289">
  <defs>
    <style>
      .cls-1 {
        fill: #0067b1;
      }

      .cls-2 {
        fill: #231f20;
      }
    </style>
  </defs>
  <g id="Layer_7" data-name="Layer 7">
    <g>
      <path class="cls-2" d="m100.84,213.54c0,12.45,6.23,16.72,17.42,16.72,12,0,17.37-5.07,17.37-16.67v-20.44h-11.85v21.64c0,3.92-1.26,6.63-5.53,6.63-4.87,0-5.57-3.06-5.57-6.63v-21.64h-11.85v20.39h0Z"/>
      <polygon class="cls-2" points="152.43 229.31 152.43 217.05 152.18 211.43 151.68 206.11 151.78 206.11 158.36 229.31 166.59 229.31 173.17 206.11 173.27 206.11 172.67 212.63 172.52 218.26 172.52 229.31 183.16 229.31 183.16 193.15 168.85 193.15 162.47 215.7 156.1 193.15 141.78 193.15 141.78 229.31 152.43 229.31 152.43 229.31"/>
      <path class="cls-2" d="m210.9,193.15h-12.05l-12.96,36.15h11.6l1.35-4.77h11.8l1.4,4.77h11.8l-12.96-36.15Zm-9.79,23.85l3.67-12.96,3.82,12.96h-7.48Z"/>
      <path class="cls-2" d="m256.33,203.65c-.85-6.33-5.42-11.45-15.47-11.45-9.04,0-15.67,3.87-15.67,11.55,0,13.81,20.79,10.04,20.79,15.52,0,1.71-1.96,2.66-4.92,2.66-1.16,0-2.41-.3-3.37-.9-1-.6-1.71-1.56-1.96-2.86h-11.35c.25,6.52,6.48,12.1,16.02,12.1s16.92-4.07,16.92-12.46c0-13.15-20.79-9.79-20.79-15.21,0-1.31,1.15-2.06,3.77-2.06,1.15,0,2.21.2,3.06.65.85.45,1.51,1.21,1.71,2.46h11.25Z"/>
      <path class="cls-2" d="m291.91,203.65c-.86-6.33-5.42-11.45-15.47-11.45-9.04,0-15.66,3.87-15.66,11.55,0,13.81,20.79,10.04,20.79,15.52,0,1.71-1.96,2.66-4.92,2.66-1.16,0-2.41-.3-3.37-.9-1-.6-1.71-1.56-1.96-2.86h-11.35c.25,6.52,6.48,12.1,16.02,12.1s16.92-4.07,16.92-12.46c0-13.15-20.79-9.79-20.79-15.21,0-1.31,1.15-2.06,3.77-2.06,1.15,0,2.21.2,3.06.65.86.45,1.51,1.21,1.71,2.46h11.25Z"/>
    </g>
    <path class="cls-2" d="m109.33,170.97c0-28.94,76.23-85.61,76.23-104.09,0-6.23-7.4-8.04-15.05-8.04-16.04,0-60.69,19.29-60.69,47.83,0,10.45,6.66,16.28,19.24,19.09-9.51,5.22-22.99,2.1-28.31-6.91v65.87h16.98c-5.05-2.91-8.41-8.37-8.41-13.74Z"/>
    <path class="cls-2" d="m176.68,54.42c8.83,0,15.19,1.68,19.59,4.14l-27.67-31.77h-67.83v75.02c7.16-16.83,31.41-47.38,75.92-47.38Z"/>
    <path class="cls-2" d="m139.64,184.71h31.89v-18.14c-10.37,8.17-21.27,14.88-31.89,18.14Z"/>
    <path class="cls-1" d="m225.07,26.58l-28.32,32.51c5.02,3.25,7.04,7.56,7.04,11.2,0,20.49-77.71,86.01-77.71,104.09,0,4.02,1.97,4.82,6.41,4.82,35.77,0,97.48-83.36,115.96-106.68,7.4-1.21,16.17-.28,24.07-1.08-15.72,17.08-56.64,81.83-56.64,103.14,0,5.43,3.95,8.24,9.87,8.24,11.6,0,26.89-17.68,26.89-38.18,4.2,3.01,6.17,7.44,6.17,11.86,0,11.51-8.5,21.81-19.85,27.19h53.95V26.58h-67.84Z"/>
  </g>
  <g id="Layer_3_copy" data-name="Layer 3 copy">
    <g>
      <path class="cls-1" d="m100.76,236.92h7.78v17.87h11.17v6.16h-18.95v-24.04Z"/>
      <path class="cls-1" d="m143.17,236.35c7.67,0,12.79,5.25,12.79,12.59s-5.13,12.59-12.79,12.59-12.8-5.25-12.8-12.59,5.12-12.59,12.8-12.59Zm0,19.19c1.98,0,5.02-1.25,5.02-6.6s-3.04-6.6-5.02-6.6-5.02,1.25-5.02,6.6,3.04,6.6,5.02,6.6Z"/>
      <path class="cls-1" d="m192.54,260.96h-7.56l-2.72-14.65h-.07l-2.65,14.65h-7.6l-6.86-24.04h7.63l3.08,14.85h.07l3.04-14.85h6.86l2.97,15.05h.07l3.15-15.05h7.67l-7.07,24.04Z"/>
      <path class="cls-1" d="m209.86,236.92h20.89v6.16h-13.11v3h11.91v5.72h-11.91v3h13.5v6.16h-21.28v-24.04Z"/>
      <path class="cls-1" d="m243.22,236.92h7.78v17.87h11.17v6.16h-18.94v-24.04Z"/>
      <path class="cls-1" d="m273.73,236.92h7.78v17.87h11.17v6.16h-18.94v-24.04Z"/>
    </g>
  </g>
</svg>